# xmcd
#
# Track frame offsets:
# 150
# 17840
# 35512
# 55714
# 75569
# 92714
# 114146
# 135239
# 154632
# 174011
# 194846
# 214011
# 232628
# 255304
# 270322
# 287207
# 304966
# 323922
# 341408
#
# Disc length: 4793 seconds
#
#
# Revision: 0
# Processed by: cddbd v1.5.2PL0 Copyright (c) Steve Scherf et al.
# Submitted via: FreeRIP 2.95 
#
DISCID=ee12b713
DTITLE=Robbie Williams - Greatest Hits
DYEAR=2004
DGENRE=BritPop
TTITLE0=Old Before I Die
TTITLE1=Lazy Days
TTITLE2=Angels
TTITLE3=Let Me Entertain You
TTITLE4=Millenium
TTITLE5=No Regrets
TTITLE6=Strong
TTITLE7=She's The One
TTITLE8=Rock Dj
TTITLE9=Kids (With Kylie Minogue)
TTITLE10=Supreme
TTITLE11=Let Love Be Your Energy
TTITLE12=Eternity
TTITLE13=The Road to Mandalay
TTITLE14=Feel
TTITLE15=Come Undone
TTITLE16=Sexed Up
TTITLE17=Radio
TTITLE18=Misunderstood
EXTD=
EXTT0=
EXTT1=
EXTT2=
EXTT3=
EXTT4=
EXTT5=
EXTT6=
EXTT7=
EXTT8=
EXTT9=
EXTT10=
EXTT11=
EXTT12=
EXTT13=
EXTT14=
EXTT15=
EXTT16=
EXTT17=
EXTT18=
PLAYORDER=
